<svg aria-hidden="true" style="position: absolute; width: 0; height: 0; overflow: hidden;" version="1.1" xmlns="http://www.w3.org/2000/svg" xmlns:xlink="http://www.w3.org/1999/xlink">
<defs>
<symbol id="icon-facebook" viewBox="0 0 32 32">
<path d="M21.95 5.005l-3.306-0.004c-3.206 0-5.277 2.124-5.277 5.415v2.495h-3.317v4.515h3.317l-0.004 9.575h4.641l0.004-9.575h3.806l-0.003-4.514h-3.803v-2.117c0-1.018 0.241-1.533 1.566-1.533l2.366-0.001 0.010-4.256z"></path>
</symbol>
<symbol id="icon-mail" viewBox="0 0 32 32">
<path fill="#fff" style="fill: var(--color1, #fff)" d="M2 11.559v11.441c0 2.209 1.791 4 4 4h20c2.209 0 4-1.791 4-4v-11.441l-11.904 7.325c-1.286 0.791-2.907 0.791-4.193 0l-11.904-7.325z"></path>
<path fill="#fff" style="fill: var(--color1, #fff)" d="M30 9.21v-0.21c0-2.209-1.791-4-4-4h-20c-2.209 0-4 1.791-4 4v0.21l12.952 7.97c0.643 0.396 1.454 0.396 2.096 0l12.952-7.97z"></path>
</symbol>
<symbol id="icon-phone" viewBox="0 0 32 32">
<path fill="#fff" style="fill: var(--color1, #fff)" d="M2 6c0-2.209 1.791-4 4-4h1.829c1.147 0 2.147 0.781 2.425 1.894l1.474 5.898c0.244 0.976-0.121 2.003-0.925 2.606l-1.725 1.294c-0.179 0.134-0.218 0.331-0.168 0.468 1.514 4.133 4.797 7.416 8.93 8.93 0.137 0.050 0.334 0.011 0.468-0.168l1.294-1.725c0.604-0.805 1.631-1.169 2.606-0.925l5.898 1.474c1.113 0.278 1.894 1.278 1.894 2.425v1.829c0 2.209-1.791 4-4 4h-3c-11.598 0-21-9.402-21-21v-3z"></path>
</symbol>
<symbol id="icon-strilka" viewBox="0 0 32 32">
<path fill="none" stroke="#fff" style="stroke: var(--color1, #fff)" stroke-linejoin="round" stroke-linecap="round" stroke-miterlimit="4" stroke-width="2.4" d="M26 11l-10 10-10-10"></path>
</symbol>
<symbol id="icon-instagram" viewBox="0 0 32 32">
<path d="M22.467 0h-12.934c-5.256 0-9.533 4.276-9.533 9.533v12.934c0 5.256 4.276 9.533 9.533 9.533h12.934c5.256 0 9.533-4.276 9.533-9.533v-12.934c-0-5.256-4.277-9.533-9.533-9.533zM28.781 22.467c0 3.487-2.827 6.314-6.314 6.314h-12.934c-3.487 0-6.314-2.827-6.314-6.314v-12.934c0-3.487 2.827-6.314 6.314-6.314h12.934c3.487 0 6.314 2.827 6.314 6.314v12.934z"></path>
<path d="M16 7.724c-4.564 0-8.276 3.713-8.276 8.276s3.713 8.276 8.276 8.276 8.276-3.713 8.276-8.276-3.713-8.276-8.276-8.276zM16 21.057c-2.793 0-5.057-2.264-5.057-5.057s2.264-5.057 5.057-5.057c2.793 0 5.057 2.264 5.057 5.057s-2.264 5.057-5.057 5.057z"></path>
<path d="M26.275 7.786c0 1.095-0.888 1.983-1.983 1.983s-1.983-0.888-1.983-1.983c0-1.095 0.888-1.983 1.983-1.983s1.983 0.888 1.983 1.983z"></path>
</symbol>
<symbol id="icon-telegram" viewBox="0 0 32 32">
<path d="M27.613 4.873c0 0 2.59-1.010 2.374 1.443-0.072 1.010-0.719 4.545-1.223 8.369l-1.727 11.326c0 0-0.144 1.659-1.439 1.948s-3.238-1.010-3.598-1.299c-0.288-0.216-5.396-3.463-7.195-5.050-0.504-0.433-1.079-1.299 0.072-2.309l7.555-7.214c0.863-0.866 1.727-2.886-1.871-0.433l-10.073 6.854c0 0-1.151 0.721-3.31 0.072l-4.677-1.443c0 0-1.727-1.082 1.223-2.164 7.195-3.391 16.045-6.854 23.887-10.1z"></path>
</symbol>
</symbol>
</defs>
</svg>
